<svg xmlns="http://www.w3.org/2000/svg" width="85" height="60" viewBox="0 0 85 60" fill="none"><path d="M39.8709 7.44724C39.8709 11.2842 36.7662 14.3945 32.9361 14.3945C29.106 14.3945 26 11.2842 26 7.44724C26 3.61029 29.1047 0.5 32.9361 0.5C36.7649 0.5 39.8709 3.61029 39.8709 7.44724Z" fill="#383535"></path><path fill-rule="evenodd" clip-rule="evenodd" d="M52.6357 14.3704C56.1997 14.0743 58.9996 11.0879 58.9996 7.44724C58.9996 3.61029 55.8895 0.5 52.0528 0.5C48.216 0.5 45.1059 3.61029 45.1059 7.44724C45.1059 7.44803 45.1059 7.44882 45.1059 7.4496L45.1039 7.44803C45.1039 7.44803 44.5018 12.3725 41.6305 15.264C39.0118 17.9011 33.0618 19.4183 32.035 19.6649C28.6287 20.1118 26 23.0252 26 26.5527C26 30.3896 29.1114 33.4999 32.9481 33.4999C34.4106 33.4999 35.7675 33.048 36.8869 32.2762C40.8647 30.1587 44.4117 30.5131 48.384 32.4532C49.4486 33.1167 50.7059 33.4999 52.0528 33.4999C55.8895 33.4999 58.9996 30.3896 58.9996 26.5527C58.9996 22.7157 55.8895 19.6054 52.0528 19.6054C49.2753 19.6054 46.8787 21.2353 45.767 23.5909C45.2252 24.3396 44.2117 25.3769 42.755 25.3769C41.4722 25.3769 40.6705 25.1229 40.2146 24.9007C40.7907 23.5797 42.1404 20.8485 44.2365 18.7376C46.5279 16.43 50.9451 14.8959 52.6357 14.3704Z" fill="url(#paint0_linear_4740_1339)"></path><path d="M12.9404 56.5678V59.3099H0V57.143L8.2248 47.4079H0.168413V44.6657H12.7146V46.8314L4.46233 56.5653H12.9404V56.5678ZM31.1677 52.0707C31.1677 52.3083 31.149 52.6459 31.1115 53.0847H19.35C19.5559 54.1632 20.0898 55.0224 20.9494 55.6623C21.8288 56.2838 22.9142 56.5946 24.2053 56.5946C25.852 56.5946 27.2081 56.0644 28.2759 55.0041L30.1559 57.115C29.4823 57.901 28.6315 58.4946 27.6023 58.8967C26.5731 59.2989 25.4129 59.5 24.1218 59.5C22.475 59.5 21.0254 59.1807 19.7705 58.5396C18.5167 57.8998 17.5437 57.0138 16.8513 55.8804C16.1776 54.7287 15.8408 53.4308 15.8408 51.9866C15.8408 50.5607 16.1677 49.281 16.8239 48.1476C17.4975 46.9959 18.4232 46.1002 19.6033 45.4604C20.7822 44.8205 22.1108 44.5 23.5891 44.5C25.0487 44.5 26.3486 44.8193 27.49 45.4604C28.6502 46.0819 29.5484 46.9691 30.1846 48.1196C30.8408 49.2554 31.1677 50.5717 31.1677 52.0707ZM23.5891 47.2446C22.4663 47.2446 21.512 47.5736 20.726 48.2317C19.9588 48.8715 19.491 49.7307 19.3226 50.8093H27.8268C27.6771 49.749 27.2181 48.8898 26.4521 48.2317C25.6861 47.5724 24.7305 47.2446 23.5891 47.2446ZM49.7517 52.0707C49.7517 52.3083 49.733 52.6459 49.6956 53.0847H37.9341C38.14 54.1632 38.6739 55.0224 39.5347 55.6623C40.4142 56.2838 41.4995 56.5946 42.7907 56.5946C44.4374 56.5946 45.7934 56.0644 46.86 55.0041L48.74 57.115C48.0664 57.901 47.2156 58.4946 46.1864 58.8967C45.1572 59.2989 43.997 59.5 42.7058 59.5C41.0591 59.5 39.6095 59.1807 38.3545 58.5396C37.1008 57.8998 36.1277 57.0138 35.4354 55.8804C34.7617 54.7287 34.4249 53.4308 34.4249 51.9866C34.4249 50.5607 34.7517 49.281 35.4079 48.1476C36.0816 46.9959 37.0085 46.1002 38.1874 45.4604C39.3663 44.8205 40.6949 44.5 42.1732 44.5C43.6327 44.5 44.9326 44.8193 46.0741 45.4604C47.2343 46.0819 48.1325 46.9691 48.7687 48.1196C49.4237 49.2554 49.7517 50.5717 49.7517 52.0707ZM42.1732 47.2446C41.0504 47.2446 40.0961 47.5736 39.3101 48.2317C38.5429 48.8715 38.0751 49.7307 37.9067 50.8093H46.4122C46.2625 49.749 45.8034 48.8898 45.0362 48.2317C44.269 47.5724 43.3146 47.2446 42.1732 47.2446ZM68.0052 44.667L61.5768 59.3099H57.9566L51.5294 44.667H55.1784L59.8378 55.5258L64.6382 44.667H68.0052ZM85 52.0707C85 52.3083 84.9813 52.6459 84.9439 53.0847H73.1836C73.3895 54.1632 73.9222 55.0224 74.7829 55.6623C75.6624 56.2838 76.7478 56.5946 78.0389 56.5946C79.6856 56.5946 81.0429 56.0644 82.1083 55.0041L83.9895 57.115C83.3159 57.901 82.4638 58.4946 81.4346 58.8967C80.4054 59.2989 79.2453 59.5 77.9541 59.5C76.3074 59.5 74.8565 59.1807 73.6028 58.5396C72.3491 57.8998 71.376 57.0138 70.6836 55.8804C70.01 54.7287 69.6732 53.4308 69.6732 51.9866C69.6732 50.5607 70 49.281 70.6562 48.1476C71.3298 46.9959 72.2555 46.1002 73.4344 45.4604C74.6133 44.8205 75.9419 44.5 77.4202 44.5C78.8797 44.5 80.1796 44.8193 81.3224 45.4604C82.4825 46.0819 83.3807 46.9691 84.017 48.1196C84.6719 49.2554 85 50.5717 85 52.0707ZM77.4214 47.2446C76.2987 47.2446 75.3443 47.5736 74.5584 48.2317C73.7912 48.8715 73.3233 49.7307 73.1549 50.8093H81.6604C81.5107 49.749 81.0516 48.8898 80.2844 48.2317C79.5172 47.5724 78.5629 47.2446 77.4214 47.2446Z" fill="#383535"></path><defs><linearGradient id="paint0_linear_4740_1339" x1="26" y1="4.38233" x2="59.3892" y2="4.83613" gradientUnits="userSpaceOnUse"><stop stop-color="#32B8B2"></stop><stop offset="1" stop-color="#088DB2"></stop></linearGradient></defs></svg>